<svg width="2000" height="1999" viewBox="0 0 2000 1999" fill="none" xmlns="http://www.w3.org/2000/svg">
<path d="M2000 999.345C2000 1552.01 1551.56 1998.69 1000.95 1998.69C450.331 1998.69 0 1552.01 0 999.345C0 446.677 448.439 0 999.054 0C1549.67 0 2000 448.569 2000 999.345Z" fill="white"/>
<path d="M1572.37 518.599C1547.78 458.033 1508.04 403.144 1462.63 359.612C1415.33 314.188 1358.56 280.119 1299.91 255.514C1260.17 240.372 1220.43 229.016 1178.81 225.231C1029.33 204.411 872.28 249.836 758.751 363.398C626.301 495.887 580.889 687.049 639.546 866.855V868.748C603.595 891.461 569.536 917.958 539.262 950.134C493.85 997.452 456.007 1054.23 433.302 1114.8C408.704 1177.26 399.243 1239.72 399.243 1305.96C399.243 1370.31 412.488 1436.56 438.978 1495.23C463.576 1555.8 503.311 1610.69 548.723 1654.22C596.026 1699.64 652.791 1733.71 711.447 1758.32C770.104 1782.92 834.437 1792.39 898.77 1792.39C889.309 1792.39 879.848 1792.39 872.28 1792.39C1006.62 1799.96 1144.75 1750.75 1246.93 1648.54C1379.38 1516.05 1424.79 1324.89 1368.02 1148.87C1407.76 1126.16 1443.71 1097.76 1473.98 1063.7C1519.39 1016.38 1557.24 959.598 1579.94 899.031C1604.54 836.572 1614 774.113 1614 707.869C1614 643.517 1598.86 577.273 1572.37 518.599ZM1140.96 554.56C1137.18 539.419 1135.29 522.384 1135.29 507.243C1152.32 511.028 1171.24 514.814 1188.27 522.384C1212.87 531.848 1233.68 548.882 1248.82 567.809C1263.95 586.736 1279.09 607.556 1286.66 632.161C1294.23 656.766 1298.01 679.478 1298.01 704.083C1294.23 749.508 1275.31 793.04 1243.14 825.216L1140.96 554.56ZM1258.28 863.07C1262.06 859.285 1263.95 857.392 1267.74 853.607C1288.55 832.787 1301.8 808.182 1313.15 781.684C1324.5 755.186 1326.4 724.903 1326.4 698.405C1326.4 668.122 1318.83 643.517 1307.47 618.912C1296.12 594.307 1277.2 573.487 1260.17 554.56C1241.25 537.526 1218.54 522.384 1193.94 514.814C1176.92 509.136 1157.99 505.35 1139.07 505.35C1139.07 473.174 1148.53 442.891 1161.78 416.393C1182.59 420.179 1205.3 427.749 1224.22 437.213C1262.06 454.247 1290.44 476.96 1316.93 503.457C1341.53 533.741 1362.35 564.024 1375.59 599.985C1388.84 634.054 1394.51 671.908 1394.51 709.762C1394.51 747.616 1386.94 785.469 1369.91 815.753C1356.67 849.821 1335.86 880.104 1309.37 902.817C1299.91 910.388 1292.34 917.958 1280.98 923.636L1258.28 863.07ZM1294.23 957.705C1307.47 948.242 1320.72 936.885 1333.96 923.636C1360.45 893.353 1385.05 857.392 1398.3 819.538C1415.33 779.791 1419.11 738.152 1419.11 700.298C1419.11 660.551 1409.65 620.805 1392.62 582.951C1377.48 548.882 1352.89 512.921 1324.5 486.423C1294.23 459.925 1263.95 439.106 1226.11 425.857C1205.3 418.286 1182.59 414.501 1161.78 410.715C1171.24 393.681 1182.59 378.539 1195.84 363.398C1207.19 352.042 1218.54 342.578 1231.79 335.007C1241.25 338.793 1250.71 342.578 1260.17 346.363C1305.58 365.29 1347.21 393.681 1383.16 431.535C1417.22 465.603 1443.71 512.921 1462.63 556.453C1481.55 603.77 1489.12 654.873 1489.12 702.191C1487.23 757.079 1475.87 804.396 1456.95 849.821C1438.03 891.461 1409.65 931.207 1373.7 967.169C1354.78 986.095 1335.86 1001.24 1315.04 1014.49L1294.23 957.705ZM773.888 1675.04C766.32 1671.25 758.751 1669.36 751.182 1665.57C705.771 1646.65 664.144 1618.26 628.193 1580.4C594.134 1546.33 567.644 1499.02 548.723 1455.48C529.801 1408.17 522.233 1357.06 522.233 1309.75C524.125 1258.64 535.478 1211.33 554.399 1165.9C573.32 1124.26 601.703 1084.52 637.654 1048.55C654.683 1031.52 673.604 1016.38 692.526 1005.02L713.339 1061.8C701.987 1071.27 688.742 1080.73 679.281 1092.09C652.791 1122.37 628.193 1158.33 614.948 1196.19C597.918 1235.93 594.134 1277.57 594.134 1315.43C594.134 1355.17 603.595 1394.92 620.624 1432.77C635.761 1466.84 660.359 1502.8 688.742 1529.3C719.016 1555.8 749.29 1576.62 787.133 1589.87C806.055 1597.44 824.976 1601.22 845.79 1605.01C836.329 1622.04 824.976 1637.18 811.731 1650.43C800.378 1658 787.133 1667.47 773.888 1675.04ZM789.025 1580.4C751.182 1563.37 722.8 1540.66 696.31 1514.16C671.712 1483.88 650.899 1453.59 637.654 1417.63C624.408 1383.56 618.732 1345.71 618.732 1307.85C618.732 1270 626.301 1232.15 643.33 1201.86C656.575 1167.79 677.389 1137.51 703.879 1114.8C711.447 1109.12 719.016 1101.55 726.584 1095.87L749.29 1156.44C747.398 1158.33 745.506 1160.22 743.614 1162.12C722.8 1182.94 709.555 1207.54 698.202 1234.04C686.849 1260.54 684.957 1290.82 684.957 1317.32C684.957 1347.6 692.526 1372.21 703.879 1396.81C715.232 1421.42 734.153 1442.24 751.182 1461.16C770.104 1478.2 792.81 1493.34 817.408 1500.91C832.545 1506.59 851.466 1508.48 868.496 1510.37C866.603 1542.55 859.035 1572.83 843.898 1599.33C826.868 1593.65 807.947 1587.97 789.025 1580.4ZM866.603 1459.27C870.388 1474.41 870.388 1491.45 870.388 1506.59C853.358 1502.8 838.221 1499.02 823.084 1491.45C798.486 1481.98 777.672 1464.95 762.535 1446.02C747.398 1427.09 732.261 1406.27 724.692 1381.67C715.232 1357.06 713.339 1334.35 713.339 1309.75C715.232 1266.21 734.153 1222.68 764.427 1192.4L866.603 1459.27ZM560.075 1646.65C514.664 1601.22 482.497 1548.23 457.9 1489.55C437.086 1434.67 425.733 1370.31 425.733 1307.85C429.517 1247.29 442.762 1184.83 465.468 1129.94C490.066 1073.16 526.017 1023.95 569.536 980.417C596.026 953.92 624.408 933.1 656.575 914.173L673.604 957.705C649.006 974.739 624.408 991.774 605.487 1014.49C567.644 1054.23 539.262 1099.66 520.34 1150.76C501.419 1201.86 493.85 1254.86 493.85 1307.85C497.635 1360.85 507.095 1413.85 527.909 1461.16C548.723 1508.48 580.889 1553.91 618.732 1587.97C656.575 1622.04 700.094 1652.33 749.29 1671.25C756.859 1673.15 762.535 1676.93 770.104 1678.82C737.937 1697.75 703.879 1707.21 666.036 1709.11C652.791 1709.11 639.546 1707.21 626.301 1705.32C601.703 1686.39 580.889 1667.47 560.075 1646.65ZM1545.88 883.89C1521.29 940.671 1485.34 989.881 1441.82 1033.41C1415.33 1059.91 1383.16 1084.52 1349.1 1103.44L1333.96 1061.8C1360.45 1044.77 1386.94 1025.84 1407.76 1001.24C1445.6 961.49 1473.98 916.066 1492.9 864.963C1511.83 813.86 1519.39 760.864 1519.39 707.869C1515.61 654.873 1506.15 601.878 1485.34 554.56C1464.52 507.243 1432.36 461.818 1394.51 427.749C1356.67 393.681 1313.15 363.398 1263.95 344.471C1254.49 340.685 1245.03 338.793 1237.46 335.007C1282.88 308.509 1335.86 300.939 1386.94 310.402C1411.54 327.436 1434.25 346.363 1453.17 369.076C1498.58 414.501 1530.75 467.496 1555.35 526.17C1576.16 581.058 1587.51 645.41 1587.51 707.869C1581.84 766.543 1568.59 829.002 1545.88 883.89Z" fill="#DD1438"/>
</svg>
