<?xml version="1.0" encoding="UTF-8"?>
<svg id="Layer_1" data-name="Layer 1" xmlns="http://www.w3.org/2000/svg" viewBox="0 0 2000 426.33">
  <defs>
    <style>
      .cls-1 {
        fill: #131722;
      }

      .cls-1, .cls-2, .cls-3 {
        stroke-width: 0px;
      }

      .cls-2 {
        fill: #fff;
      }

      .cls-3 {
        fill: #dd1438;
      }
    </style>
  </defs>
  <g id="horz_light_bg" data-name="horz light bg">
    <g>
      <path class="cls-3" d="m426.5,213.17c0,117.67-95.5,213.17-213.17,213.17S0,330.83,0,213.17,95.5,0,213.33,0s213.17,95.5,213.17,213.17"/>
      <path class="cls-2" d="m335.5,110.67c-5.17-13-13.67-24.5-23.33-34-10.17-9.5-22.17-17-34.67-22.17-8.33-3.33-17-5.5-26-6.67-31.83-4.67-65.33,5.17-89.67,29.5-28,28-37.83,69.17-25.5,107.33v.5c-7.83,4.83-15,10.67-21.17,17.33-9.67,10.17-17.67,22.17-22.83,35.17-5.17,13.17-7.5,26.67-7.5,41,0,13.5,3,27.67,8.5,40.33,5.17,13,13.67,24.5,23.33,34,10.17,9.5,22.17,17,34.67,22.17s26,7.5,39.83,7.5c-2,0-3.83,0-5.67-.17,28.83,1.5,58-8.67,80-30.67,28.17-28.17,38-69,25.83-106.5,8.33-5,16-11.17,22.5-18,9.67-10.17,17.67-22.17,22.83-35.17,5.17-13.17,7.5-26.67,7.5-41,0-13.83-3-28-8.67-40.5m-92,7.5c-.83-3.33-1-6.83-1-10.17,3.83.67,7.5,1.83,11.17,3.33,5.17,2.17,9.5,5.67,13,9.5,3.33,4.17,6.33,8.5,8,13.67,1.83,5.17,2.33,10.17,2.33,15.33-.67,9.83-4.83,19-11.67,25.83l-21.83-57.5Zm24.83,65.67c.67-.67,1.33-1.33,2-2,4.5-4.67,7.33-9.5,9.5-15.33,2.33-5.83,2.83-12,2.83-17.67,0-6.33-1.67-11.83-4-17s-6.33-9.67-10.17-13.67c-4-3.5-9-7-14.17-8.67-3.67-1.33-7.67-1.83-11.83-2.17.17-6.67,1.83-13.17,5-19.17,4.67,1,9.17,2.33,13.33,4.33,8,3.5,14.17,8.67,19.83,14.17,5.17,6.33,9.67,13,12.5,20.5s4,15.17,4,23.33-1.67,16-5.17,22.83c-2.83,7.33-7.5,13.5-13,18.67-1.83,1.67-3.83,3.17-5.83,4.5l-4.83-12.67Zm7.83,20.33c3-2.17,5.83-4.5,8.33-7.17,5.83-6.33,10.83-14.17,13.67-22.17,3.5-8.67,4.67-17.17,4.67-25.67s-2.17-17-5.67-25c-3.33-7.5-8.5-14.83-14.67-20.5-6.33-5.67-13-10.17-21-13-4.5-1.5-9.17-2.67-13.83-3.17,2-3.67,4.33-7,7.33-10,2.33-2.33,4.83-4.33,7.5-6,2.17.83,4.17,1.67,6.17,2.5,9.5,4,18.67,10.17,26,18.17,7.5,7.5,13,17.17,17,26.67,4,10.17,5.67,21,5.67,31.17-.5,10.83-2.83,21.17-6.83,30.67-4,9-10.17,17.5-17.67,25-3.83,3.83-8.17,7.33-12.67,10.17l-4-11.67Zm-111,153c-1.67-.67-3.33-1.33-5-2.17-9.5-4-18.67-10.17-26-18.17-7.5-7.5-13-17.17-17-26.67-4-10.17-5.67-21-5.67-31.17.5-10.83,2.83-21.17,6.83-30.67,4-9,10.17-17.5,17.67-25,3.67-3.67,7.5-6.83,11.67-9.5l4.67,12c-2.67,2-5.17,4.17-7.5,6.5-5.83,6.33-10.83,14.17-13.67,22.17-3.5,8.5-4.67,17.17-4.67,25.5s2.17,17,5.67,25c3.33,7.5,8.5,14.83,14.67,20.5,6.33,5.67,13,10.17,21,13,4,1.5,8.17,2.33,12.5,3-2,3.5-4.33,6.67-7.17,9.5-2.67,2.5-5.17,4.5-8,6.17m3.17-20.33c-8-3.5-14.17-8.67-19.83-14.17-5.17-6.33-9.67-13-12.5-20.5s-4-15.17-4-23.33,1.67-16,5.17-22.83c2.83-7.33,7.5-13.5,13-18.67,1.5-1.33,3.17-2.67,5-4l5,12.83c-.33.33-.83.67-1.17,1.17-4.5,4.67-7.33,9.5-9.5,15.33-2.33,5.83-2.83,12-2.83,17.67,0,6.33,1.67,11.83,4,17,2.33,5.17,6.33,9.67,10.17,13.67,4,3.5,9,7,14.17,8.67,3.33,1.17,7,1.83,10.83,2-.33,6.67-2.17,13.17-5.33,19-4.17-.83-8.17-2-12.17-3.83m16.5-25.83c.67,3.33,1,6.83.83,10.17-3.5-.67-6.83-1.67-10.17-3.17-5.17-2.17-9.5-5.67-13-9.5-3.33-4.17-6.33-8.67-8-13.67-1.83-5.17-2.33-10.17-2.33-15.33.67-9.33,4.5-18.33,10.83-25l21.83,56.5Zm-65.33,40c-9.67-9.67-16.5-21-21.67-33.5-4.5-11.83-6.83-25.67-6.83-38.67.67-13,3.5-26,8.67-38,5.17-12,13-22.83,22.17-31.83,5.5-5.5,11.67-10.17,18.5-14.17l3.5,9.17c-5.33,3.5-10.33,7.5-14.67,12.17-8,8.5-14.17,18.17-18.17,28.83-4,10.67-5.67,22.17-5.67,33.5.67,11.17,2.83,22.67,7.5,32.83,4.67,10.17,11.33,19.83,19.33,27.17,8,7.5,17.5,13.67,27.67,17.67,1.5.5,3,1,4.33,1.5-6.67,4-14.17,6.17-22.17,6.33-2.83,0-5.67-.17-8.33-.83-5-3.5-9.83-7.67-14.17-12.17m210-162.5c-5.17,12-13,22.83-22.17,31.83-5.83,5.83-12.5,10.83-19.67,14.83l-3.5-9c5.83-3.67,11.17-7.83,15.83-12.83,8-8.5,14.17-18.17,18.17-28.83s5.67-22.17,5.67-33.5c-.67-11.17-2.83-22.67-7.5-32.83-4.67-10.17-11.33-19.83-19.33-27.17-8-7.5-17.5-13.67-27.67-17.67-1.83-.67-3.83-1.33-5.83-2,9.67-5.83,21.17-7.5,31.83-5.17,5.17,3.67,10,7.83,14.17,12.33,9.67,9.67,16.5,21,21.67,33.5,4.5,11.83,6.83,25.67,6.83,38.67-.5,12.83-3.33,26-8.5,37.83"/>
      <path class="cls-1" d="m563.5,352.67c-21.17-6.17-38.17-14.17-51-24l22.5-50c12.33,9,26.83,16.17,43.83,21.67,16.83,5.5,33.83,8.17,50.67,8.17,18.83,0,32.67-2.83,41.67-8.33,9-5.67,13.5-13,13.5-22.33,0-6.83-2.67-12.5-8-17-5.33-4.5-12.17-8.17-20.5-10.83-8.33-2.67-19.5-5.67-33.83-9-21.83-5.17-39.67-10.33-53.67-15.5-14-5.17-25.83-13.5-35.83-25s-15-26.67-15-45.83c0-16.67,4.5-31.67,13.5-45.17s22.5-24.17,40.67-32.17c18.17-7.83,40.33-11.83,66.5-11.83,18.33,0,36.17,2.17,53.67,6.5,17.5,4.33,32.67,10.67,45.83,18.83l-20.5,50.33c-26.5-15-53-22.5-79.33-22.5-18.5,0-32.33,3-41.17,9-8.83,6-13.33,14-13.33,23.67s5.17,17.17,15.33,21.83c10.17,4.83,25.83,9.5,46.83,14.17,21.83,5.17,39.67,10.33,53.67,15.5,14,5.17,25.83,13.33,35.83,24.5,10,11.17,15,26.33,15,45.5,0,16.33-4.5,31.33-13.67,44.83-9.17,13.5-22.83,24.17-41.17,32.17-18.33,7.83-40.5,11.83-66.67,11.83-22.33.17-44.17-2.83-65.33-9"/>
      <path class="cls-1" d="m829.67,328c-22.83-22.67-34.17-55-34.17-97V70.5h66.33v158c0,51.33,21.33,77,63.83,77,20.67,0,36.5-6.17,47.5-18.67,10.83-12.5,16.33-31.83,16.33-58.33V70.5h65.5v160.33c0,42-11.33,74.33-34.17,97-22.83,22.67-54.67,34-95.5,34-41,0-73-11.33-95.67-33.83"/>
      <path class="cls-1" d="m1295,83.17c18.67,8.5,33.17,20.5,43.17,36,10.17,15.5,15.17,34,15.17,55.17s-5,39.33-15.17,55c-10.17,15.67-24.5,27.67-43.17,36-18.67,8.33-40.67,12.5-66.17,12.5h-57.67v79h-66.33V70.5h124c25.33,0,47.33,4.33,66.17,12.67m-24.33,127.83c10.33-8.67,15.5-20.83,15.5-36.67s-5.17-28.5-15.5-37c-10.33-8.67-25.5-12.83-45.5-12.83h-54v99.5h54c19.83,0,35-4.33,45.5-13"/>
      <path class="cls-1" d="m1583.67,357l-55.17-79.83h-61v79.83h-66.33V70.5h124c25.33,0,47.33,4.17,66.17,12.67,18.67,8.5,33.17,20.5,43.17,36,10.17,15.5,15.17,34,15.17,55.17s-5.17,39.67-15.33,55c-10.17,15.5-24.83,27.17-43.5,35.33l64.17,92h-71.33v.33Zm-16.83-219.5c-10.33-8.67-25.5-12.83-45.5-12.83h-54v99.83h54c19.83,0,35-4.33,45.5-13.17,10.33-8.67,15.5-21,15.5-36.83.17-16.17-5-28.5-15.5-37"/>
      <path class="cls-1" d="m1905,295.67h-133l-25.33,61.33h-67.83l127.67-286.5h65.5l128,286.5h-69.5l-25.5-61.33Zm-20.83-50.33l-45.5-109.67-45.5,109.67h91Z"/>
    </g>
  </g>
</svg>
